<?xml version="1.0" encoding="utf-8"?>
<!-- Generator: Adobe Illustrator 21.0.0, SVG Export Plug-In . SVG Version: 6.00 Build 0)  -->
<svg version="1.1" xmlns="http://www.w3.org/2000/svg" xmlns:xlink="http://www.w3.org/1999/xlink" x="0px" y="0px"
	 viewBox="0 0 283.5 166.5" style="enable-background:new 0 0 283.5 166.5;" xml:space="preserve">
<style type="text/css">
	.st0{opacity:0.2;fill:#FFFFFF;}
	.st1{fill:#FFFFFF;}
</style>
<g id="Calque_2">
</g>
<g id="Calque_1">
	<path class="st0" d="M272.4,71.9c-6.2,0-10.6-1.5-13.2-4.5c-2.6-3-4-7.5-4-13.4V39.4c0-12.6-3-21.7-8.9-27.5
		c-5.9-5.8-14.9-8.6-26.9-8.6h-7.3H69.6h-7.3c-6.3,0-11.7,0.8-16.2,2.3c-4.5,1.5-8.2,3.8-11.1,6.8c-2.9,3-5,6.8-6.4,11.3
		c-1.4,4.5-2,9.8-2,15.7v15.3c0,3-0.3,5.6-0.9,7.8c-0.6,2.2-1.6,4-3,5.3c-1.4,1.4-3.2,2.4-5.4,3.1c-2.2,0.7-4.9,1-8,1H3.9v16.4h5.5
		c6.2,0,10.6,1.5,13.3,4.5c2.7,3,4,7.5,4,13.5v22.1c0,12.5,3,21.6,8.9,27.4c5.9,5.8,14.8,8.6,26.8,8.6h7.3h142.6h7.3
		c6.3,0,11.7-0.8,16.2-2.3c4.5-1.5,8.2-3.8,11.1-6.8c2.9-3,5-6.8,6.4-11.2c1.4-4.5,2-9.7,2-15.7v-22.8c0-3,0.3-5.6,0.9-7.8
		c0.6-2.2,1.6-4,3-5.3c1.4-1.4,3.1-2.4,5.3-3.1c2.2-0.7,4.9-1,8-1h5.6V71.9H272.4z"/>
	<path class="st1" d="M159.6,144.2l-0.5-13c-1.9,2.3-3.8,4.3-5.7,6.2c-2,1.9-4.1,3.4-6.3,4.7c-2.3,1.3-4.7,2.3-7.3,3
		c-2.6,0.7-5.4,1.1-8.6,1.1c-5.2,0-9.8-1-13.9-3.1c-4.1-2.1-7.5-5-10.2-8.9c-2.8-3.8-4.8-8.5-6.3-14c-1.4-5.5-2.2-11.6-2.2-18.4
		c0-8.1,1.1-15.1,3.4-21.1c2.3-5.9,5.5-10.9,9.5-14.8c4.1-3.9,8.9-6.8,14.4-8.7c5.6-1.9,11.6-2.8,18.1-2.8c2.2,0,4.4,0.1,6.6,0.4
		c2.2,0.3,4.2,0.7,5.9,1.1V21.5h21.2v122.7H159.6z M120.8,100.8c0,4.9,0.3,9,1,12.5c0.7,3.4,1.6,6.3,3,8.5c1.3,2.2,2.9,3.8,4.8,4.8
		c1.9,1,4.1,1.5,6.5,1.5c3.6,0,7-1.4,10.2-4.3c3.2-2.9,6.7-6.9,10.3-11.9V73.3c-1.7-0.6-3.7-1.2-6.2-1.6c-2.5-0.4-4.9-0.6-7.4-0.6
		c-3.4,0-6.5,0.7-9.2,2.1c-2.7,1.4-5.1,3.4-7,5.9c-1.9,2.5-3.4,5.7-4.5,9.3C121.4,92.1,120.8,96.2,120.8,100.8z"/>
	<path class="st1" d="M219.5,3.3c12,0,21,2.9,26.9,8.6c5.9,5.8,8.9,14.9,8.9,27.5V54c0,6,1.3,10.4,4,13.4c2.6,3,7,4.5,13.2,4.5h5.6
		v16.4h-5.6c-3.1,0-5.8,0.3-8,1c-2.2,0.7-4,1.7-5.3,3.1c-1.4,1.4-2.3,3.2-3,5.3c-0.6,2.2-0.9,4.8-0.9,7.8v22.8c0,6-0.7,11.2-2,15.7
		c-1.4,4.5-3.5,8.2-6.4,11.2c-2.9,3-6.6,5.3-11.1,6.8c-4.5,1.5-9.9,2.3-16.2,2.3h-7.3v-16.3h5.6c2.8,0,5.3-0.3,7.5-1
		c2.2-0.6,4.2-1.7,5.8-3.3c1.6-1.5,2.9-3.5,3.7-6c0.9-2.5,1.3-5.5,1.3-9.2v-22.6c0-4.3,0.4-8.1,1.1-11.2c0.7-3.1,1.8-5.7,3.3-7.7
		c1.5-2.1,3.4-3.6,5.7-4.7c2.3-1.1,5-1.9,8.2-2.3c-6.2-0.8-10.8-3.2-13.8-7.3c-3-4.1-4.5-10.5-4.5-19.1V39.3c0-3.8-0.4-6.9-1.3-9.4
		c-0.9-2.5-2.1-4.5-3.7-6c-1.6-1.5-3.5-2.6-5.8-3.2c-2.2-0.6-4.7-1-7.5-1h-5.6V3.3H219.5z"/>
	<path class="st1" d="M62.3,164.4c-12,0-20.9-2.9-26.8-8.6c-5.9-5.8-8.9-14.9-8.9-27.4v-22.1c0-6-1.3-10.4-4-13.5
		c-2.7-3-7.1-4.5-13.3-4.5H3.9V71.9h5.5c3.1,0,5.8-0.3,8-1c2.2-0.7,4-1.7,5.4-3.1c1.4-1.4,2.4-3.2,3-5.3c0.6-2.2,0.9-4.8,0.9-7.8
		V39.4c0-6,0.7-11.2,2-15.7c1.4-4.5,3.5-8.3,6.4-11.3c2.9-3,6.6-5.3,11.1-6.8c4.5-1.5,9.9-2.3,16.2-2.3h7.3v16.3h-5.5
		c-2.8,0-5.3,0.3-7.5,1c-2.2,0.7-4.2,1.8-5.8,3.3c-1.6,1.5-2.9,3.5-3.7,5.9c-0.9,2.5-1.3,5.5-1.3,9.2v15.2c0,4.3-0.4,8-1.1,11.1
		c-0.7,3.1-1.8,5.6-3.3,7.7c-1.5,2.1-3.4,3.6-5.7,4.8c-2.3,1.1-5,1.9-8.2,2.4c6.2,0.7,10.8,3.1,13.8,7.3c3,4.1,4.5,10.5,4.5,19.1
		v22.1c0,3.8,0.4,6.9,1.3,9.4c0.9,2.5,2.1,4.5,3.7,6c1.6,1.5,3.5,2.6,5.8,3.2c2.2,0.6,4.7,1,7.5,1h5.5v16.3H62.3z"/>
</g>
</svg>
