<?xml version="1.0" encoding="utf-8"?>
<!-- Generator: Adobe Illustrator 21.0.0, SVG Export Plug-In . SVG Version: 6.00 Build 0)  -->
<svg version="1.1" id="Calque_1" xmlns="http://www.w3.org/2000/svg" xmlns:xlink="http://www.w3.org/1999/xlink" x="0px" y="0px"
	 viewBox="0 0 659.3 166.5" style="enable-background:new 0 0 659.3 166.5;" xml:space="preserve">
<style type="text/css">
	.st0{opacity:0.25;fill:#2D2B2B;enable-background:new    ;}
	.st1{fill:#2D2B2B;}
</style>
<g id="Calque_2">
</g>
<g id="Calque_1_1_">
	<path class="st0" d="M650.8,71.9c-6.2,0-10.6-1.5-13.2-4.5c-2.6-3-4-7.5-4-13.4V39.4c0-12.6-3-21.7-8.9-27.5
		c-5.9-5.8-14.9-8.6-26.9-8.6h-7.3H69.6h-7.3c-6.3,0-11.7,0.8-16.2,2.3S37.9,9.4,35,12.4s-5,6.8-6.4,11.3s-2,9.8-2,15.7v15.3
		c0,3-0.3,5.6-0.9,7.8c-0.6,2.2-1.6,4-3,5.3c-1.4,1.4-3.2,2.4-5.4,3.1s-4.9,1-8,1H3.9v16.4h5.5c6.2,0,10.6,1.5,13.3,4.5
		s4,7.5,4,13.5v22.1c0,12.5,3,21.6,8.9,27.4c5.9,5.8,14.8,8.6,26.8,8.6h7.3h521h7.3c6.3,0,11.7-0.8,16.2-2.3s8.2-3.8,11.1-6.8
		s5-6.8,6.4-11.2c1.4-4.5,2-9.7,2-15.7v-22.8c0-3,0.3-5.6,0.9-7.8c0.6-2.2,1.6-4,3-5.3c1.4-1.4,3.1-2.4,5.3-3.1c2.2-0.7,4.9-1,8-1
		h5.6V71.9H650.8z"/>
	<path class="st1" d="M597.8,3.3c12,0,21,2.9,26.9,8.6c5.9,5.8,8.9,14.9,8.9,27.5V54c0,6,1.3,10.4,4,13.4c2.6,3,7,4.5,13.2,4.5h5.6
		v16.4h-5.6c-3.1,0-5.8,0.3-8,1s-4,1.7-5.3,3.1c-1.4,1.4-2.3,3.2-3,5.3c-0.6,2.2-0.9,4.8-0.9,7.8v22.8c0,6-0.7,11.2-2,15.7
		c-1.4,4.5-3.5,8.2-6.4,11.2c-2.9,3-6.6,5.3-11.1,6.8s-9.9,2.3-16.2,2.3h-7.3V148h5.6c2.8,0,5.3-0.3,7.5-1c2.2-0.6,4.2-1.7,5.8-3.3
		c1.6-1.5,2.9-3.5,3.7-6c0.9-2.5,1.3-5.5,1.3-9.2v-22.6c0-4.3,0.4-8.1,1.1-11.2s1.8-5.7,3.3-7.7c1.5-2.1,3.4-3.6,5.7-4.7
		c2.3-1.1,5-1.9,8.2-2.3c-6.2-0.8-10.8-3.2-13.8-7.3c-3-4.1-4.5-10.5-4.5-19.1V39.3c0-3.8-0.4-6.9-1.3-9.4c-0.9-2.5-2.1-4.5-3.7-6
		c-1.6-1.5-3.5-2.6-5.8-3.2c-2.2-0.6-4.7-1-7.5-1h-5.6V3.3H597.8z"/>
	<path class="st1" d="M62.3,164.4c-12,0-20.9-2.9-26.8-8.6c-5.9-5.8-8.9-14.9-8.9-27.4v-22.1c0-6-1.3-10.4-4-13.5
		c-2.7-3-7.1-4.5-13.3-4.5H3.9V71.9h5.5c3.1,0,5.8-0.3,8-1s4-1.7,5.4-3.1s2.4-3.2,3-5.3c0.6-2.2,0.9-4.8,0.9-7.8V39.4
		c0-6,0.7-11.2,2-15.7c1.4-4.5,3.5-8.3,6.4-11.3s6.6-5.3,11.1-6.8s9.9-2.3,16.2-2.3h7.3v16.3h-5.5c-2.8,0-5.3,0.3-7.5,1
		s-4.2,1.8-5.8,3.3s-2.9,3.5-3.7,5.9c-0.9,2.5-1.3,5.5-1.3,9.2v15.2c0,4.3-0.4,8-1.1,11.1c-0.7,3.1-1.8,5.6-3.3,7.7
		s-3.4,3.6-5.7,4.8c-2.3,1.1-5,1.9-8.2,2.4c6.2,0.7,10.8,3.1,13.8,7.3c3,4.1,4.5,10.5,4.5,19.1v22.1c0,3.8,0.4,6.9,1.3,9.4
		c0.9,2.5,2.1,4.5,3.7,6c1.6,1.5,3.5,2.6,5.8,3.2c2.2,0.6,4.7,1,7.5,1h5.5v16.3h-7.4C62.3,164.6,62.3,164.4,62.3,164.4z"/>
</g>
<g>
	<path class="st1" d="M155.3,130.1l-0.5-12.9c-1.8,2.2-3.7,4.3-5.7,6.1c-1.9,1.8-4,3.4-6.3,4.7c-2.2,1.3-4.6,2.3-7.2,3
		c-2.5,0.7-5.4,1.1-8.5,1.1c-5.1,0-9.7-1-13.7-3.1c-4-2.1-7.4-5-10.1-8.8c-2.7-3.8-4.8-8.4-6.2-13.9c-1.4-5.4-2.1-11.5-2.1-18.2
		c0-8,1.1-14.9,3.4-20.8c2.3-5.9,5.4-10.7,9.4-14.6c4-3.9,8.8-6.7,14.2-8.6c5.5-1.9,11.5-2.8,17.9-2.8c2.2,0,4.4,0.1,6.6,0.4
		c2.2,0.3,4.2,0.7,5.9,1.1V8.8h20.9v121.3H155.3z M117.1,87.2c0,4.8,0.3,8.9,1,12.3c0.7,3.4,1.6,6.2,2.9,8.4
		c1.3,2.2,2.9,3.8,4.8,4.8c1.9,1,4,1.5,6.4,1.5c3.5,0,6.9-1.4,10.1-4.3c3.2-2.9,6.6-6.8,10.2-11.8V60c-1.7-0.6-3.7-1.1-6.1-1.5
		c-2.4-0.4-4.9-0.6-7.3-0.6c-3.4,0-6.4,0.7-9.1,2.1c-2.7,1.4-5,3.3-6.9,5.8c-1.9,2.5-3.4,5.6-4.4,9.2
		C117.6,78.6,117.1,82.6,117.1,87.2z"/>
	<path class="st1" d="M268.7,130.1h-23.3l-9.3-27.6l-2.8-9.6l-2.8,9.9l-8.9,27.4h-23.3l-12.4-87.2h19.9l6.3,49.3l1.5,13.5l3.5-12.1
		l8.8-26.5h16l9.4,26.3l4,12.4l1.6-13.8l5.2-49.1h19L268.7,130.1z"/>
	<path class="st1" d="M348.4,130.1l-0.5-11.4c-1.8,1.9-3.7,3.7-5.8,5.4c-2,1.6-4.2,3-6.6,4.2c-2.4,1.2-5,2.1-7.9,2.8
		c-2.8,0.7-5.9,1-9.3,1c-4.5,0-8.4-0.7-11.8-2c-3.4-1.3-6.2-3.1-8.5-5.5c-2.3-2.3-4-5.2-5.2-8.5c-1.2-3.3-1.8-7-1.8-11
		c0-4.1,0.9-7.9,2.6-11.4c1.7-3.5,4.4-6.5,8-9c3.6-2.5,8-4.5,13.4-5.9c5.3-1.4,11.6-2.1,18.8-2.1h11.4v-5.2c0-2.2-0.3-4.2-0.9-6
		c-0.6-1.8-1.6-3.3-3-4.6c-1.4-1.3-3.2-2.2-5.4-2.9c-2.2-0.7-5-1-8.2-1c-5.1,0-10.2,0.6-15.2,1.8c-5,1.2-9.9,2.8-14.5,4.9V46.7
		c4.2-1.7,9-3,14.5-4.1c5.5-1.1,11.1-1.6,17-1.6c6.5,0,12,0.6,16.6,1.8c4.6,1.2,8.5,3.1,11.5,5.5c3,2.5,5.2,5.5,6.7,9.2
		c1.4,3.7,2.1,8,2.1,12.9v59.6H348.4z M345.4,91.5h-12.8c-3.5,0-6.6,0.3-9,1c-2.5,0.7-4.5,1.6-6,2.8c-1.5,1.2-2.7,2.6-3.4,4.2
		c-0.7,1.6-1.1,3.2-1.1,5c0,3.5,1.1,6.3,3.4,8.1c2.3,1.9,5.4,2.8,9.4,2.8c2.9,0,5.9-1.1,9.1-3.2c3.1-2.1,6.6-5.1,10.4-9.1V91.5z"/>
	<path class="st1" d="M468.8,84.9c0,8-1.1,14.9-3.4,20.8c-2.3,5.8-5.4,10.7-9.4,14.5c-4,3.9-8.8,6.7-14.3,8.6
		c-5.5,1.9-11.5,2.8-17.9,2.8c-2.2,0-4.3-0.1-6.5-0.4c-2.2-0.3-4.1-0.7-5.9-1.1v34.1h-20.9V42.9h18.1l0.5,12.9
		c1.8-2.2,3.6-4.3,5.5-6.1c1.9-1.8,4-3.4,6.2-4.7s4.6-2.3,7.2-3c2.6-0.7,5.5-1,8.7-1c5.1,0,9.7,1,13.7,3.1c4,2.1,7.4,5,10.1,8.8
		c2.7,3.8,4.8,8.4,6.2,13.8C468.1,72.1,468.8,78.2,468.8,84.9z M446.8,85.8c0-4.8-0.3-8.9-1-12.3c-0.7-3.4-1.7-6.1-3-8.3
		c-1.3-2.2-2.9-3.8-4.7-4.8c-1.9-1-4-1.5-6.4-1.5c-3.5,0-6.9,1.4-10.2,4.3c-3.2,2.9-6.7,6.8-10.3,11.7V113c1.7,0.6,3.7,1.1,6.1,1.5
		c2.4,0.4,4.9,0.6,7.4,0.6c3.3,0,6.3-0.7,9.1-2.1c2.7-1.4,5-3.3,7-5.8c1.9-2.5,3.4-5.6,4.4-9.2C446.3,94.4,446.8,90.3,446.8,85.8z"
		/>
	<path class="st1" d="M565.4,84.9c0,8-1.1,14.9-3.4,20.8c-2.3,5.8-5.4,10.7-9.4,14.5c-4,3.9-8.8,6.7-14.3,8.6
		c-5.5,1.9-11.5,2.8-17.9,2.8c-2.2,0-4.3-0.1-6.5-0.4c-2.2-0.3-4.1-0.7-5.9-1.1v34.1H487V42.9h18.1l0.5,12.9
		c1.8-2.2,3.6-4.3,5.5-6.1c1.9-1.8,4-3.4,6.2-4.7s4.6-2.3,7.2-3c2.6-0.7,5.5-1,8.7-1c5.1,0,9.7,1,13.7,3.1c4,2.1,7.4,5,10.1,8.8
		c2.7,3.8,4.8,8.4,6.2,13.8C564.7,72.1,565.4,78.2,565.4,84.9z M543.5,85.8c0-4.8-0.3-8.9-1-12.3c-0.7-3.4-1.7-6.1-3-8.3
		c-1.3-2.2-2.9-3.8-4.7-4.8c-1.9-1-4-1.5-6.4-1.5c-3.5,0-6.9,1.4-10.2,4.3c-3.2,2.9-6.7,6.8-10.3,11.7V113c1.7,0.6,3.7,1.1,6.1,1.5
		c2.4,0.4,4.9,0.6,7.4,0.6c3.3,0,6.3-0.7,9.1-2.1c2.7-1.4,5-3.3,7-5.8c1.9-2.5,3.4-5.6,4.4-9.2C543,94.4,543.5,90.3,543.5,85.8z"/>
</g>
</svg>
